<svg width="33" height="33" viewBox="0 0 33 33" fill="none" xmlns="http://www.w3.org/2000/svg">
<path d="M24.5105 27.033L24.5312 19.8891L26.9188 19.896L26.8912 29.411L5.34106 29.3486L5.36859 19.8336L7.75617 19.8405L7.7355 26.9845L24.5105 27.033Z" fill="#ABB2BF"/>
<path d="M10.2298 19.1707L21.9436 21.6372L22.4465 19.2984L10.7327 16.8319L10.2298 19.1707ZM11.7962 13.6325L22.6343 18.683L23.6328 16.5304L12.7948 11.4491L11.7962 13.6325ZM14.8193 8.34482L24.0064 15.9773L25.5311 14.1649L16.3439 6.53243L14.8193 8.34482ZM20.789 2.72696L18.8624 4.13787L25.9665 13.7042L27.8931 12.2933L20.789 2.72696ZM9.96608 24.5895L21.935 24.6241L21.9419 22.253L9.97294 22.2184L9.96608 24.5895Z" fill="#ABB2BF"/>
</svg>
